PathFileType	4	(X/Y/Z)	C:/Users/beibeiliu/ov580/test_trc/User1\sequence.37_training_dense_right.trc
DataRate	CameraRate	NumFrames	NumMarkers	Units	OrigDataRate	OrigDataStartFrame	OrigNumFrames
120	120	22	19	mm	120	152	243
Frame#	Time	ThumbCMC			ThumbMCP			ThumbIP			ThumbTip			IndexMCP			IndexPIP			IndexTip			MiddleMCP			MiddlePIP			MiddleTip			RingMCP			RingPIP			RingTip			PinkyMCP			PinkyPIP			PinkyTip			BackHand1			BackHand2			BackHand3	
		X0	Y0	Z0	X1	Y1	Z1	X2	Y2	Z2	X3	Y3	Z3	X4	Y4	Z4	X5	Y5	Z5	X6	Y6	Z6	X7	Y7	Z7	X8	Y8	Z8	X9	Y9	Z9	X10	Y10	Z10	X11	Y11	Z11	X12	Y12	Z12	X13	Y13	Z13	X14	Y14	Z14	X15	Y15	Z15	X16	Y16	Z16	X17	Y17	Z17	X18	Y18	Z18	
151	1.25833	193.061	-22.762	55.0697	175.634	-17.0977	26.2303	170.967	-27.8273	-1.63761	158.396	-40.3733	-20.9255	190.741	-62.0076	-16.7008	159.494	-70.9267	-21.6359	134.964	-61.1853	6.5125	189.871	-90.4624	-10.5716	153.6	-87.7443	-15.8169	134.651	-71.533	13.2436	180.208	-110.777	-0.620524	147.338	-102.665	0.312819	139.177	-86.8345	24.6274	180.97	-124.327	21.5702	152.719	-111.7	14.9763	146.767	-87.1183	36.6553	218.752	-90.263	51.4576	218.364	-82.3291	89.103	220.369	-53.488	56.4523	
152	1.26667	191.381	-26.8137	56.1038	174.55	-19.4915	26.8009	168.181	-25.4631	-6.2617	158.099	-37.0821	-24.7405	189.68	-66.3774	-16.0463	156.597	-70.5804	-21.234	136.483	-62.3993	6.64845	184.658	-92.0958	-13.9727	151.424	-85.4574	-13.5625	136.677	-73.9744	20.3123	182.005	-109.266	1.82627	150.443	-101.113	-0.238237	141.462	-83.3188	26.8112	180.529	-120.857	20.93	150.047	-110.578	19.7244	149.258	-86.9551	37.2123	219.729	-95.1487	52.7817	217.117	-77.6442	86.4476	219.432	-51.9642	56.8789	
153	1.275	190.886	-25.2482	57.0967	174.13	-21.3795	24.9186	168.345	-27.148	-6.32269	155.681	-35.7743	-25.8737	187.537	-63.4922	-19.457	155.506	-70.3746	-21.3641	136.879	-63.2354	7.28798	188.591	-89.0569	-11.8631	149.279	-86.1705	-9.17199	140.809	-66.9884	23.479	179.014	-107.69	-0.996275	147.509	-99.3561	4.79883	143.427	-83.208	32.9717	179.216	-121.711	19.7979	151.81	-108.635	20.439	155.775	-83.3715	39.9775	219.337	-94.4351	50.206	220.76	-81.6329	82.5104	219.983	-54.1529	56.9449	
154	1.28333	189.781	-27.9008	56.1533	172.995	-24.3274	24.2478	165.939	-29.9723	-3.73524	155.552	-37.5754	-26.6106	185.53	-67.3102	-19.1324	153.302	-69.1555	-20.462	137.569	-62.0058	9.65109	185.409	-91.4526	-11.6645	151.052	-87.0424	-8.9431	144.633	-66.2106	26.4962	180.528	-109.17	2.40924	147.507	-102.626	7.49499	144.569	-80.3878	33.3281	178.858	-123.018	22.1428	152.426	-110.586	20.4001	152.242	-84.9351	41.2413	217.289	-91.783	51.1692	218.57	-83.3832	85.2511	221.597	-52.9021	54.5634	
155	1.29167	189.714	-29.2182	56.8952	172.228	-25.7462	24.1862	165.533	-30.7564	-5.06255	156.539	-40.5857	-24.1787	187.515	-68.5359	-18.2096	154.015	-71.7261	-17.1587	138.006	-61.9459	6.2761	184.288	-89.8845	-13.3994	148.651	-86.7889	-4.91026	147.741	-66.3098	29.2784	180.181	-110.966	5.22702	146.063	-100.458	9.56745	147.376	-79.7793	37.6512	180.095	-123.616	22.589	151.138	-108.662	23.2428	156.306	-83.0025	43.6657	219.324	-96.8159	49.2666	217.996	-83.7706	84.9964	220.194	-55.4889	56.3939	
156	1.3	190.05	-27.765	53.7349	170.85	-28.1888	26.8105	164.437	-33.7392	-1.60431	155.444	-37.7939	-23.0836	188.036	-66.9019	-18.3884	153.59	-71.1776	-17.9917	138.995	-61.9451	8.13926	184.773	-92.9675	-10.6248	152.512	-85.2592	-8.86396	149.754	-68.7776	31.4038	177.855	-107.877	1.02674	146.727	-95.9725	10.3519	149.351	-78.3314	37.7913	179.471	-123.533	23.0921	154.693	-107.895	21.3183	157.243	-82.9548	45.7783	219.211	-95.1098	48.6411	218.485	-80.8231	84.4866	223.477	-56.2863	55.4259	
157	1.30833	188.908	-26.5636	54.8215	172.667	-30.0907	20.7009	166.06	-35.3258	-6.36026	157.27	-41.9084	-26.0388	190.715	-68.124	-15.626	155.888	-69.6739	-19.4664	138.726	-60.267	11.0514	184.078	-91.4899	-12.7059	150.596	-86.8046	-3.551	149.758	-70.0212	31.8713	179.392	-111.397	5.32872	148.531	-98.9839	9.45003	149.006	-82.3428	40.2417	180.162	-124.552	22.7412	154.995	-108.803	21.6204	156.116	-86.1967	44.0014	220.781	-93.708	53.6091	221.867	-79.5311	85.4237	222.398	-53.1751	53.9965	
158	1.31667	190.713	-29.5612	49.7946	171.637	-28.0665	23.2862	165.987	-36.902	-5.17985	156.559	-39.8002	-28.4404	188.989	-69.8354	-17.8037	157.946	-70.4381	-19.7081	138.994	-63.9341	11.9828	187.368	-93.8079	-10.2606	151.993	-88.4082	-5.6182	149.037	-72.2695	31.1938	180.52	-109.777	4.07838	150.24	-98.4759	10.2023	152.935	-77.1294	40.5968	180.696	-125.248	22.5067	154.991	-107.134	23.2668	156.11	-88.2247	47.4847	221.616	-95.9426	48.7293	220.098	-80.1541	82.1539	222.662	-53.4112	52.5313	
159	1.325	190.625	-26.9115	53.1963	173.878	-32.5887	23.0557	166.995	-36.5222	-1.89954	158.127	-41.0909	-28.3144	189.036	-67.9074	-18.1167	159.618	-72.8088	-18.5272	139.808	-61.3883	11.0175	189.734	-92.2902	-9.68039	150.446	-87.5819	-1.64637	148.532	-72.5491	29.4544	182.638	-107.191	4.57393	149.376	-97.0557	12.4756	152.66	-81.2032	41.0373	184.184	-121.624	22.6232	154.236	-109.423	24.5506	161.196	-85.996	45.3212	221.281	-95.8378	53.6723	220.501	-84.6147	84.0649	224.856	-58.762	53.5962	
160	1.33333	191.667	-31.8313	51.1862	171.542	-27.5573	22.3798	165.544	-32.4329	-4.7693	157.352	-38.2271	-27.8195	190.646	-66.9197	-17.8192	159.636	-73.1272	-17.7732	140.147	-62.298	14.0738	186.641	-90.4639	-11.7509	152.042	-84.5392	-4.27278	148.399	-72.27	28.7902	180.175	-107.701	2.64757	150.984	-96.0795	11.6585	155.535	-79.6587	42.256	182.198	-123.209	22.3929	158.145	-109.514	22.4469	159.411	-88.3926	45.8947	222.793	-92.5649	53.7634	222.173	-83.8085	83.6194	223.652	-53.0816	54.6194	
161	1.34167	190.651	-28.2592	54.2163	172.524	-28.8305	21.9613	167.759	-34.6306	-6.93064	158.478	-35.8856	-23.0113	193.303	-67.4308	-17.0746	160.08	-74.6635	-17.007	142.234	-61.8571	13.6604	188.13	-89.7851	-11.6442	155.917	-90.4175	-4.86026	147.267	-69.2245	26.776	183.131	-108.741	4.68081	151.521	-98.1982	11.9837	152.401	-81.9497	38.6155	183.005	-121.804	22.4584	156.392	-111.927	24.9627	158.768	-88.208	47.83	223.937	-90.9919	50.3127	222.985	-79.0444	87.9813	225.398	-52.1222	56.5432	
162	1.35	193.233	-28.8848	52.6596	174.974	-26.3034	22.7708	170.525	-32.1605	-2.97711	161.724	-34.007	-22.4816	195.316	-68.736	-15.0706	161.998	-75.591	-17.8395	143.35	-62.1424	6.43553	189.279	-92.3592	-10.6412	155.722	-87.2995	-7.67202	148.282	-67.4637	28.5714	183.922	-107.525	2.88704	152.814	-98.4722	7.66815	154.18	-79.4688	38.4332	185.414	-125.81	24.85	157.689	-110.192	22.9668	161.149	-86.2116	45.8165	223.633	-95.9739	51.1217	224.064	-82.3998	87.1037	224.485	-52.877	52.5504	
163	1.35833	193.601	-25.0144	54.9499	179.521	-26.102	22.2746	174.651	-30.9582	-4.29303	165.971	-29.9901	-24.3889	192.678	-66.4026	-19.3814	163.129	-73.0977	-19.3206	144.114	-61.951	10.9551	193.175	-90.303	-11.4457	157.108	-90.555	-7.45698	146.774	-70.1583	22.281	185.636	-110.383	3.052	152.877	-102.168	8.56856	150.133	-84.5336	35.2486	185.057	-123.51	23.1525	159.602	-109.703	20.9431	159.557	-83.4549	43.6419	225.191	-92.2956	52.73	225.152	-81.6926	85.3252	224.239	-52.9179	57.6726	
164	1.36667	196.943	-27.3121	55.6696	182.787	-22.4229	24.4544	179.917	-25.8412	-5.02001	170.838	-27.4792	-22.4154	198.434	-69.6108	-16.838	163.351	-69.7242	-20.9932	146.493	-61.1599	4.4585	193.148	-90.5255	-11.8333	159.085	-86.7883	-10.3537	145.905	-70.311	23.3931	186.653	-109.644	2.64035	154.774	-101.156	6.37616	149.817	-81.8849	34.324	186.619	-124.331	23.8082	157.64	-113.77	20.9168	157.906	-82.8607	42.0093	225.772	-95.1633	54.9329	223.192	-81.7746	90.7469	225.359	-53.8499	59.1271	
165	1.375	199.677	-26.4154	58.7249	185.657	-20.3554	25.4526	183.201	-21.4429	-5.85929	174.28	-28.083	-25.5995	201.649	-65.2306	-16.2333	166.365	-69.5298	-22.459	147.591	-60.102	1.17273	198.062	-94.4366	-8.24821	160.119	-88.9079	-10.5634	144.552	-73.3477	19.798	189.003	-111.708	3.82814	159.08	-100.281	0.896356	148.636	-84.0682	31.1378	185.859	-120.54	20.44	162.199	-111.129	16.6888	154.993	-83.7906	38.6799	225.97	-92.101	57.814	223.011	-83.8194	88.8532	227.233	-54.9396	59.1199	
166	1.38333	201.355	-26.7788	55.3519	187.93	-20.6037	25.5086	182.969	-19.1043	0.20218	175.019	-27.9901	-21.8371	203.193	-68.4091	-15.2568	169.383	-71.2854	-22.3395	147.947	-61.0467	-0.511778	199.244	-90.4271	-12.4631	164.248	-86.4902	-15.8486	144.51	-70.312	15.1295	193.385	-110.015	3.12566	158.6	-103.827	1.857	147.664	-85.6047	25.9667	192.253	-120.443	24.1382	162.761	-113.711	16.4425	158.041	-85.6939	31.0558	225.679	-91.6125	54.287	223.339	-82.5486	87.6997	229.684	-53.84	59.7775	
167	1.39167	200.498	-22.5527	58.0591	188.203	-17.9096	28.4056	184.919	-20.7066	-4.10151	173.175	-31.0767	-21.1951	204.175	-63.1697	-17.9357	174.373	-70.1374	-26.1331	147.469	-63.5508	0.48906	202.631	-88.6469	-12.5335	168.741	-89.8741	-17.5869	143.48	-76.3496	13.0283	196.044	-110.195	3.20197	160.382	-103.204	-1.82734	147.12	-89.2608	23.7034	192.678	-123.588	24.2967	167.437	-114.223	14.0989	156.122	-88.7397	30.5875	226.512	-92.2061	54.9707	225.515	-82.1358	90.5566	230.67	-54.7678	60.4474	
168	1.4	200.556	-20.3944	60.6485	189.764	-18.4307	28.5879	185.258	-22.0088	2.28767	175.314	-34.2199	-19.1397	206.374	-62.267	-14.8434	172.487	-71.8275	-23.9485	148.944	-64.7747	-2.7226	205.363	-88.4432	-10.9427	170.89	-89.9676	-19.2829	145.768	-79.4487	9.0653	196.876	-111.639	3.44586	159.828	-105.74	-1.37364	146.369	-86.9149	22.2799	191.098	-125.299	22.0965	167.725	-112.562	13.8786	153.176	-89.1538	27.9663	228.819	-91.7019	57.4248	227.488	-80.1183	87.244	229.066	-54.0461	63.1843	
169	1.40833	203.564	-22.0636	61.1647	192.986	-13.7864	28.1615	187.535	-19.9833	2.27602	174.154	-34.0888	-22.7235	203.478	-67.4568	-17.1969	175.76	-70.3917	-25.0343	149.963	-64.3497	-5.02083	205.756	-88.7981	-11.3831	167.99	-88.1521	-19.1934	144.958	-77.0695	9.36831	197.689	-109.134	3.24451	161.545	-104.518	-2.68068	146.172	-86.9183	21.539	191.507	-124.592	21.9493	168.405	-117.138	13.6493	154.933	-86.3623	28.2988	229.993	-93.8156	56.3013	225.322	-77.0881	91.0648	229.077	-53.7268	62.9273	
170	1.41667	205.067	-25.014	58.2482	193.143	-12.8879	27.6147	188.523	-20.7462	-2.48944	176.1	-36.7369	-17.1089	206.621	-65.5243	-14.6864	176.822	-72.0269	-24.3706	147.433	-64.481	0.215371	204.624	-92.4269	-10.1155	167.472	-88.1423	-17.8713	145.555	-77.8429	11.8279	198.251	-107.602	2.60501	166.198	-106.681	-3.79886	145.179	-90.3045	21.056	194.054	-122.927	23.0397	166.812	-113.476	13.7521	151.645	-89.0224	30.4008	227.998	-94.0299	56.0279	227.241	-79.0738	90.1126	229.44	-55.3315	64.0963	
171	1.425	205.12	-21.8154	57.1212	193.905	-16.0966	29.6379	189.068	-24.9605	-0.114837	176.558	-39.1689	-18.2701	205.644	-65.401	-16.5738	174.339	-72.4975	-24.3875	148.405	-65.1742	-1.39244	202.61	-91.8618	-12.484	167.58	-92.0654	-16.2082	144.419	-78.7352	11.5222	199.053	-111.178	4.88559	164.032	-104.425	-3.42923	144.655	-90.8182	22.0672	193.922	-123.582	21.2674	169.579	-116.968	12.7453	152.412	-88.5363	28.6225	228.719	-90.7922	57.1779	227.094	-80.9655	88.802	231.583	-50.9133	62.4308	
172	1.43333	204.891	-24.4683	57.821	193.496	-16.2781	28.2326	187.964	-21.5261	-2.49872	176.861	-41.2271	-20.4148	206.984	-63.2275	-15.7291	173.459	-68.6443	-25.1858	146.841	-63.9054	-1.24484	203.991	-88.3562	-12.6643	167.587	-86.9022	-18.1382	146.26	-79.1713	10.3894	197.784	-109.2	1.9618	166.671	-107.975	-3.68999	147.201	-88.8158	17.7916	195.518	-125.607	26.4484	166.599	-116.874	14.0456	156.025	-88.3902	28.1181	228.984	-91.8746	56.1884	227.336	-79.4156	88.301	231.812	-55.0139	63.552	
